<?xml version="1.0" standalone="no"?>
<!DOCTYPE svg PUBLIC "-//W3C//DTD SVG 20010904//EN"
 "http://www.w3.org/TR/2001/REC-SVG-20010904/DTD/svg10.dtd">
<svg version="1.0" xmlns="http://www.w3.org/2000/svg"
 width="512.000000pt" height="512.000000pt" viewBox="0 0 512.000000 512.000000"
 preserveAspectRatio="xMidYMid meet">
<metadata>
Created by potrace 1.11, written by Peter Selinger 2001-2013
</metadata>
<g transform="translate(0.000000,512.000000) scale(0.100000,-0.100000)"
fill="#000000" stroke="none">
<path d="M2378 5115 c-2 -1 -39 -5 -82 -9 -44 -4 -82 -9 -85 -11 -4 -2 -34 -7
-66 -10 -117 -14 -472 -111 -499 -136 -6 -5 -16 -9 -23 -9 -8 0 -49 -16 -91
-35 -352 -161 -618 -354 -877 -637 -33 -36 -71 -80 -85 -98 -14 -18 -29 -38
-35 -44 -82 -92 -246 -369 -323 -546 -61 -142 -131 -351 -146 -443 -3 -15 -7
-35 -10 -45 -3 -9 -7 -34 -11 -56 -3 -21 -7 -41 -9 -45 -4 -6 -12 -73 -26
-201 -10 -104 -4 -448 10 -545 41 -283 81 -435 175 -667 121 -295 314 -584
545 -818 299 -302 667 -524 1074 -650 120 -37 289 -72 406 -86 30 -3 76 -10
102 -14 49 -7 473 -5 518 4 14 2 45 7 70 10 25 4 92 16 150 27 58 12 115 23
128 25 38 7 320 103 370 125 481 216 859 531 1135 945 193 291 337 655 393
994 38 235 40 574 5 805 -44 288 -139 569 -279 830 -59 109 -132 228 -144 233
-13 6 -9 40 5 48 6 4 9 4 5 0 -14 -16 49 -126 72 -126 13 0 150 140 150 153 0
12 -51 57 -64 57 -3 0 -17 5 -32 10 l-27 11 53 54 c29 30 57 52 61 50 4 -3 10
-17 13 -31 9 -34 46 -84 63 -84 13 0 153 137 153 150 0 13 -46 48 -84 64 -30
12 -37 20 -31 33 20 53 15 81 -45 248 -34 94 -71 184 -81 201 -21 34 -54 49
-286 133 -125 45 -149 48 -196 25 -18 -9 -29 -13 -25 -9 15 16 -49 125 -73
125 -14 0 -149 -140 -149 -155 0 -12 49 -55 63 -55 3 0 18 -5 33 -10 l27 -11
-53 -54 c-29 -30 -57 -52 -61 -50 -4 3 -10 17 -13 31 -9 34 -46 84 -63 84 -14
0 -153 -136 -153 -150 0 -15 59 -58 90 -65 17 -4 30 -11 28 -17 -6 -16 -19
-10 -102 43 -44 28 -120 74 -170 101 -77 42 -127 65 -271 128 -134 58 -428
135 -595 155 -25 3 -56 8 -70 11 -27 6 -456 14 -462 9z m2187 -295 c22 -20 37
-80 20 -80 -6 0 -105 99 -105 104 0 14 64 -4 85 -24z m-68 -188 c-23 -24 -60
-62 -81 -83 l-40 -40 -62 62 -62 62 81 82 82 82 62 -61 63 -60 -43 -44z m327
-73 c25 -30 34 -64 19 -72 -5 -2 -32 20 -61 50 l-53 53 35 0 c26 0 40 -7 60
-31z m-563 -40 c42 -42 58 -64 51 -71 -8 -8 -31 7 -76 46 -53 47 -63 60 -53
71 7 8 13 14 15 15 1 0 29 -27 63 -61z m495 -143 c-23 -23 -61 -60 -83 -83
l-40 -41 -62 62 -61 62 82 82 82 83 62 -62 63 -62 -43 -41z m-241 -110 c54
-53 67 -80 43 -88 -15 -5 -121 119 -113 132 9 15 9 15 70 -44z"/>
</g>
</svg>
